<svg width="103" height="35" viewBox="0 0 103 35" fill="none" xmlns="http://www.w3.org/2000/svg">
<path d="M23.2417 32.4249L29.4056 32.5526C27.2812 31.8183 25.2212 30.9244 23.2417 29.8709V32.4249ZM32.5278 31.5789V32.4249L29.4056 32.5526C35.2798 34.5479 40.6551 34.8193 44.6464 33.7019C41.4437 33.7338 37.2754 33.2869 32.5278 31.5789ZM98.3351 13.1901C100.894 13.1901 102.986 11.131 102.986 8.577C102.986 6.02301 100.91 4.6662 98.3351 4.6662C95.7762 4.6662 93.684 6.03897 93.684 8.577C93.684 11.115 95.7601 13.1901 98.3351 13.1901ZM93.6679 32.4249H102.986V14.7864H93.6679V32.4249ZM81.8068 32.4249H91.1251V1.25024L81.8068 5.60799V32.4249ZM76.8178 13.3657C73.8887 10.4606 68.7065 10.6362 68.7065 10.6362C68.7065 10.6362 63.5082 10.4606 60.5953 13.3657C57.6662 16.2709 57.8915 18.777 57.8915 21.762C57.8915 24.747 57.6662 27.2371 60.5953 30.1423C63.5243 33.0474 68.7065 32.8718 68.7065 32.8718C68.7065 32.8718 73.9048 33.0474 76.8178 30.1423C79.7468 27.2371 79.5215 24.747 79.5215 21.762C79.5054 18.761 79.7307 16.2549 76.8178 13.3657ZM70.4125 24.8427C70.4125 25.4174 70.1228 26.838 68.6904 26.838C67.2581 26.838 66.9684 25.4174 66.9684 24.8427V18.3939C66.9684 17.0052 68.1432 16.654 68.6904 16.654C69.2376 16.654 70.4125 16.9892 70.4125 18.3939V24.8427ZM53.3209 13.3657C50.3918 10.4606 45.2096 10.6362 45.2096 10.6362C45.2096 10.6362 40.0275 10.4606 37.0984 13.3657C36.7926 13.669 36.5029 13.9883 36.2454 14.3235C30.0976 9.5986 24.5775 6.90094 19.8137 4.57043V1.2662L16.1926 2.95822C7.43761 -0.56948 1.86918 0.053056 0.533396 2.97418C0.533396 2.97418 -3.47395 8.20986 10.4793 20.6606V32.4249H19.7976V27.8596C18.7515 27.1892 17.7054 26.4709 16.6754 25.6887C14.2936 23.9009 12.2657 22.2409 10.4954 20.6765V15.7282C12.6037 18.0747 15.404 20.7404 19.0895 23.7573L19.8137 24.3319V19.5751C19.8137 18.4737 20.0873 16.67 21.5518 16.67C23.0164 16.67 23.2578 17.7714 23.2578 19.0643V26.838C26.1546 28.7855 29.2607 30.3657 32.5439 31.5629V16.5742C32.5439 13.5892 30.3873 10.6042 26.0098 10.6042C23.467 10.5883 21.1012 11.9132 19.8137 14.1V5.4324C26.557 8.76855 33.3164 12.8549 35.8914 14.7385C34.2498 17.069 34.3946 19.2239 34.3946 21.7141C34.3946 24.6991 34.1693 27.1892 37.0984 30.0944C40.0275 32.9995 45.2096 32.824 45.2096 32.824C45.2096 32.824 50.4079 32.9995 53.3209 30.0944C56.25 27.1892 56.0085 24.6991 56.0085 21.7141C56.0085 18.761 56.25 16.2549 53.3209 13.3657ZM10.4793 5.60799V15.7122C2.64168 7.01268 4.21886 3.58075 4.81433 3.08592C6.98699 1.2662 10.8495 1.80893 15.1787 3.42113L10.4793 5.60799ZM46.9317 24.8427C46.9317 25.4174 46.642 26.838 45.2096 26.838C43.7773 26.838 43.4876 25.4174 43.4876 24.8427V18.3939C43.4876 17.0052 44.6625 16.654 45.2096 16.654C45.7568 16.654 46.9317 16.9892 46.9317 18.3939V24.8427Z" fill="#737373"/>
</svg>
