<svg width="17" height="12" viewBox="0 0 17 12" fill="none" xmlns="http://www.w3.org/2000/svg">
<path d="M0.500992 2C0.500992 1.46957 0.711706 0.960859 1.08678 0.585786C1.46185 0.210714 1.97056 0 2.50099 0H14.501C15.0314 0 15.5401 0.210714 15.9152 0.585786C16.2903 0.960859 16.501 1.46957 16.501 2V10C16.501 10.5304 16.2903 11.0391 15.9152 11.4142C15.5401 11.7893 15.0314 12 14.501 12H2.50099C1.97056 12 1.46185 11.7893 1.08678 11.4142C0.711706 11.0391 0.500992 10.5304 0.500992 10V2ZM2.50099 1C2.23578 1 1.98142 1.10536 1.79388 1.29289C1.60635 1.48043 1.50099 1.73478 1.50099 2V2.217L8.50099 6.417L15.501 2.217V2C15.501 1.73478 15.3956 1.48043 15.2081 1.29289C15.0206 1.10536 14.7662 1 14.501 1H2.50099ZM15.501 3.383L10.743 6.238L15.501 9.114V3.384V3.383ZM15.467 10.261L9.77199 6.82L8.50099 7.583L7.22899 6.82L1.53499 10.26C1.59219 10.4724 1.71784 10.6601 1.89248 10.7938C2.06712 10.9276 2.281 11.0001 2.50099 11H14.501C14.7209 11.0001 14.9346 10.9278 15.1093 10.7942C15.2839 10.6607 15.4096 10.4732 15.467 10.261ZM1.50099 9.114L6.25899 6.238L1.50099 3.383V9.113V9.114Z" fill="white"/>
</svg>
