<svg width="14" height="24" viewBox="0 0 14 24" fill="none" xmlns="http://www.w3.org/2000/svg">
<path fill-rule="evenodd" clip-rule="evenodd" d="M8.71135 0.03125L8.52745 0.0333036C5.18977 0.108458 3.72646 2.23854 3.72646 5.12377V6.73759H1.23998C0.992391 6.73759 0.791687 6.93829 0.791687 7.18588V11.0412L0.795779 11.1019C0.825459 11.3208 1.01302 11.4894 1.23998 11.4894L3.70255 11.4888V22.5829C3.70255 22.8306 3.90325 23.0312 4.15084 23.0312H9.01026L9.07111 23.0271C9.2899 22.9975 9.45857 22.8099 9.45857 22.5829V11.4775H12.7459C12.9735 11.4775 13.1649 11.307 13.1913 11.0809L13.6395 7.2257L13.6425 7.16491C13.6381 6.92482 13.4417 6.72564 13.1942 6.72564H9.45857V5.33894L9.45444 5.27834C9.43461 5.13352 9.48051 4.98744 9.5796 4.87996C9.6786 4.77247 9.82043 4.71479 9.96639 4.72265L12.8953 4.7233C13.143 4.7233 13.3436 4.52259 13.3436 4.27501V0.479534C13.3436 0.231954 13.143 0.03125 12.8953 0.03125H8.71135ZM12.4471 0.92782V3.82673H9.99054C9.60164 3.80515 9.20039 3.96834 8.92017 4.27245L8.84753 4.35801C8.64092 4.62231 8.53703 4.95282 8.55543 5.28781L8.56195 5.35986V7.17392L8.56607 7.23475C8.59578 7.45356 8.78332 7.62221 9.01026 7.62221H12.6909L12.3467 10.5809H9.01026L8.9494 10.585C8.73062 10.6147 8.56195 10.8022 8.56195 11.0292V22.1346H4.59912V11.0412L4.59502 10.9803C4.56535 10.7615 4.37778 10.5928 4.15084 10.5928L1.68826 10.5923V7.63416H4.17475C4.42232 7.63416 4.62303 7.43345 4.62303 7.18588V5.12377C4.62303 2.62749 5.81958 0.92782 8.71135 0.92782H12.4471Z" fill="black"/>
</svg>
