<svg width="152" height="157" viewBox="0 0 152 157" fill="none" xmlns="http://www.w3.org/2000/svg">
<g filter="url(#filter0_d_618_1890)">
<path d="M66 5.7735C72.188 2.20085 79.812 2.20085 86 5.7735L131.818 32.2265C138.006 35.7992 141.818 42.4017 141.818 49.547V102.453C141.818 109.598 138.006 116.201 131.818 119.773L86 146.227C79.812 149.799 72.188 149.799 66 146.227L20.1821 119.773C13.994 116.201 10.1821 109.598 10.1821 102.453V49.547C10.1821 42.4017 13.994 35.7992 20.1821 32.2265L66 5.7735Z" fill="white"/>
</g>
<path d="M66 19.7735C72.188 16.2008 79.812 16.2008 86 19.7735L119.694 39.2265C125.882 42.7992 129.694 49.4017 129.694 56.547V95.453C129.694 102.598 125.882 109.201 119.694 112.774L86 132.227C79.812 135.799 72.188 135.799 66 132.226L32.3064 112.773C26.1184 109.201 22.3064 102.598 22.3064 95.453V56.547C22.3064 49.4017 26.1184 42.7992 32.3064 39.2265L66 19.7735Z" fill="#33C0BA"/>
<path fill-rule="evenodd" clip-rule="evenodd" d="M48.875 70.3993V75.0312C48.875 77.7076 51.045 79.875 53.7188 79.875H98.2812C100.955 79.875 103.125 77.705 103.125 75.0312V70.3993C103.125 68.5497 102.463 66.7611 101.26 65.3567L92.7736 55.4573C92.046 54.6083 91.1434 53.9267 90.1276 53.4593C89.1118 52.992 88.0069 52.75 86.8887 52.75H65.1112C63.9931 52.75 62.8882 52.992 61.8724 53.4593C60.8566 53.9267 59.954 54.6083 59.2264 55.4573L50.7402 65.3567C49.5366 66.7611 48.8751 68.5497 48.875 70.3993ZM65.1112 56.625C64.5522 56.625 63.9997 56.746 63.4918 56.9797C62.9839 57.2133 62.5326 57.5541 62.1688 57.9787L55.0259 66.3125H63.2022C64.478 66.3126 65.7341 66.6277 66.8589 67.2297C67.9837 67.8318 68.9425 68.7023 69.6502 69.7638L70.0738 70.3993C70.4277 70.9301 70.9071 71.3653 71.4695 71.6664C72.0319 71.9674 72.6599 72.125 73.2978 72.125H78.7022C79.3401 72.125 79.9681 71.9674 80.5305 71.6664C81.0929 71.3653 81.5723 70.9301 81.9262 70.3993L82.3498 69.7638C83.0575 68.7023 84.0163 67.8318 85.1411 67.2297C86.2659 66.6277 87.522 66.3126 88.7978 66.3125H96.9741L89.8312 57.9787C89.4674 57.5541 89.0161 57.2133 88.5082 56.9797C88.0003 56.746 87.4478 56.625 86.8887 56.625H65.1112Z" fill="white"/>
<path d="M52.2669 83.75C50.394 83.75 48.875 85.269 48.875 87.1419V91.5C48.875 93.5554 49.6915 95.5267 51.1449 96.9801C52.5983 98.4335 54.5696 99.25 56.625 99.25H95.375C97.4304 99.25 99.4017 98.4335 100.855 96.9801C102.308 95.5267 103.125 93.5554 103.125 91.5V87.1393C103.125 85.269 101.606 83.75 99.7331 83.75H88.7978C87.522 83.7501 86.2659 84.0652 85.1411 84.6672C84.0163 85.2693 83.0575 86.1398 82.3498 87.2013L81.9262 87.8368C81.5723 88.3676 81.0929 88.8028 80.5305 89.1039C79.9681 89.4049 79.3401 89.5625 78.7022 89.5625H73.2978C72.6599 89.5625 72.0319 89.4049 71.4695 89.1039C70.9071 88.8028 70.4277 88.3676 70.0738 87.8368L69.6502 87.2013C68.9425 86.1398 67.9837 85.2693 66.8589 84.6672C65.7341 84.0652 64.478 83.7501 63.2022 83.75H52.2669Z" fill="white"/>
<defs>
<filter id="filter0_d_618_1890" x="6.18207" y="3.09375" width="139.636" height="153.812" filterUnits="userSpaceOnUse" color-interpolation-filters="sRGB">
<feFlood flood-opacity="0" result="BackgroundImageFix"/>
<feColorMatrix in="SourceAlpha" type="matrix" values="0 0 0 0 0 0 0 0 0 0 0 0 0 0 0 0 0 0 127 0" result="hardAlpha"/>
<feOffset dy="4"/>
<feGaussianBlur stdDeviation="2"/>
<feComposite in2="hardAlpha" operator="out"/>
<feColorMatrix type="matrix" values="0 0 0 0 0 0 0 0 0 0 0 0 0 0 0 0 0 0 0.25 0"/>
<feBlend mode="normal" in2="BackgroundImageFix" result="effect1_dropShadow_618_1890"/>
<feBlend mode="normal" in="SourceGraphic" in2="effect1_dropShadow_618_1890" result="shape"/>
</filter>
</defs>
</svg>
