<svg width="23" height="24" viewBox="0 0 23 24" fill="none" xmlns="http://www.w3.org/2000/svg">
<path fill-rule="evenodd" clip-rule="evenodd" d="M6.66104 0.03125H16.339C20.0315 0.03125 23 3.01959 23 6.69229V16.3703C23 20.0627 20.0116 23.0312 16.339 23.0312H6.72078C3.01835 23.0312 0 20.0327 0 16.3703V6.69229C0 2.9998 2.98834 0.03125 6.66104 0.03125ZM16.339 0.927354H6.66104C3.48192 0.927354 0.896104 3.49605 0.896104 6.69229V16.3703C0.896104 19.5365 3.51194 22.1351 6.72078 22.1351H16.339C19.5181 22.1351 22.1039 19.5665 22.1039 16.3703V6.69229C22.1039 3.51317 19.5352 0.927354 16.339 0.927354ZM5.73507 11.5312C5.73507 8.34736 8.31611 5.76632 11.5 5.76632C14.6839 5.76632 17.2649 8.34736 17.2649 11.5312C17.2649 14.7151 14.6839 17.2962 11.5 17.2962C8.31611 17.2962 5.73507 14.7151 5.73507 11.5312ZM16.3688 11.5312C16.3688 8.84227 14.189 6.66242 11.5 6.66242C8.81102 6.66242 6.63117 8.84227 6.63117 11.5312C6.63117 14.2202 8.81102 16.4001 11.5 16.4001C14.189 16.4001 16.3688 14.2202 16.3688 11.5312ZM18.0117 3.49618C17.1704 3.49618 16.4883 4.17823 16.4883 5.01956C16.4883 5.8609 17.1704 6.54294 18.0117 6.54294C18.853 6.54294 19.535 5.8609 19.535 5.01956C19.535 4.17823 18.853 3.49618 18.0117 3.49618ZM18.0117 4.39229C18.3581 4.39229 18.639 4.67313 18.639 5.01956C18.639 5.36599 18.3581 5.64683 18.0117 5.64683C17.6652 5.64683 17.3845 5.36599 17.3845 5.01956C17.3845 4.67313 17.6652 4.39229 18.0117 4.39229Z" fill="black"/>
</svg>
