<svg width="23" height="23" viewBox="0 0 23 23" fill="none" xmlns="http://www.w3.org/2000/svg">
<path fill-rule="evenodd" clip-rule="evenodd" d="M13.0644 7.46677C13.3033 7.46677 13.5007 7.64431 13.5321 7.87465L13.5363 7.93869V8.60065L13.6502 8.52836C14.588 7.94926 15.655 7.60266 16.762 7.52244L16.9998 7.50934L17.2236 7.50453C20.6988 7.50453 22.9261 10.1405 22.9982 14.5562L23 14.7785V21.9455C23 22.1844 22.8224 22.3818 22.5921 22.413L22.5281 22.4173H17.2551C17.0162 22.4173 16.8188 22.2399 16.7875 22.0095L16.7832 21.9455V14.389C16.7884 13.9518 16.6197 13.5303 16.3142 13.2175C16.0087 12.9046 15.5914 12.726 15.1652 12.7208C14.7272 12.726 14.3092 12.9053 14.0035 13.2193C13.7284 13.5018 13.5647 13.8724 13.5395 14.2682L13.5363 14.401V21.9518C13.5363 22.1907 13.3588 22.3881 13.1284 22.4194L13.0644 22.4237H7.82915C7.58942 22.4237 7.39159 22.2449 7.36126 22.0137L7.35723 21.9495L7.37862 16.2335L7.38494 12.7707L7.37995 9.5092L7.37047 8.44426L7.35979 8.00063C7.3592 7.98789 7.35862 7.97637 7.35803 7.96609C7.34348 7.71598 7.52596 7.50215 7.76759 7.47073L7.82915 7.46677H13.0644ZM5.7338 7.46047C5.97272 7.46047 6.17017 7.63801 6.20142 7.86837L6.20573 7.9324V21.9455C6.20573 22.1844 6.02818 22.3818 5.79784 22.413L5.7338 22.4173H0.498569C0.259652 22.4173 0.0622007 22.2399 0.0309514 22.0095L0.0266432 21.9455V7.9324C0.0266432 7.69348 0.204184 7.49603 0.434531 7.46478L0.498569 7.46047H5.7338ZM12.5925 8.41062H8.31303L8.32201 9.20446L8.32819 10.8893L8.32755 13.8743L8.31308 19.1222L8.30297 21.4798H12.5925V14.408C12.5837 13.8174 12.7767 13.2448 13.1347 12.7824L13.2276 12.6692L13.3273 12.5608C13.8079 12.0671 14.4653 11.7851 15.1653 11.7771C15.8528 11.7852 16.5091 12.0661 16.9895 12.5581C17.4356 13.0148 17.6962 13.6189 17.7246 14.2489L17.7271 14.3947V21.4736H22.0561V14.7785C22.0561 10.8595 20.3215 8.61251 17.5395 8.45701L17.3839 8.45053L17.2261 8.44837C15.8098 8.45579 14.443 8.97063 13.3739 9.8995C13.0854 10.1502 12.6448 9.97051 12.5967 9.6089L12.5925 9.54324V8.41062ZM5.26187 8.40432H0.970495V21.4736H5.26187V8.40432ZM3.00539 0.0312965L3.14009 0.0355054L3.2784 0.0354315C3.94939 0.051562 4.59485 0.288962 5.11521 0.70803L5.24264 0.816558L5.35599 0.923993C5.91032 1.477 6.22893 2.22069 6.24955 2.98204L6.24967 3.1345C6.26643 3.97287 5.93818 4.78134 5.34173 5.37075C4.78257 5.92332 4.03368 6.23791 3.26405 6.25328L3.07978 6.25234C2.24839 6.2547 1.45159 5.91985 0.871475 5.32433C0.291358 4.7288 -0.0224865 3.92348 0.00174975 3.12231C-0.0269894 2.28218 0.29938 1.4688 0.900851 0.881547C1.46473 0.330999 2.22152 0.0269235 3.00539 0.0312965ZM3.10765 0.978561C2.53347 0.945153 1.97175 1.15508 1.56022 1.55689C1.18035 1.92778 0.960854 2.43051 0.94486 2.98125L0.945127 3.11988C0.928393 3.69548 1.14576 4.25325 1.54757 4.66573C1.91847 5.04648 2.41724 5.27338 2.94574 5.30475L3.12491 5.30873C3.70435 5.32718 4.26594 5.10689 4.67831 4.6994C5.09066 4.2919 5.31759 3.73297 5.30607 3.13222C5.32037 2.55603 5.09742 1.99925 4.68938 1.59219C4.31274 1.21644 3.80891 0.998697 3.28046 0.979754L3.10765 0.978561Z" fill="black"/>
</svg>
