<svg width="16" height="16" viewBox="0 0 16 16" fill="none" xmlns="http://www.w3.org/2000/svg">
<path fill-rule="evenodd" clip-rule="evenodd" d="M5.6259 8.67058C5.62367 7.52566 5.59421 6.38096 5.53752 5.23744H8.4419L8.59733 6.73458H8.66286C9.10248 6.02982 10.1813 4.99591 11.9863 4.99591C14.1867 4.99591 15.837 6.4702 15.837 9.63972V16.0001H12.4922V10.0359C12.4922 8.64925 12.0069 7.70296 10.797 7.70296C9.87352 7.70296 9.32343 8.34144 9.08114 8.95706C8.99276 9.17725 8.97067 9.48506 8.97067 9.79363V16.0001H5.6259V8.67058ZM0.278856 16.0001H3.62362V5.23744H0.278856V16.0001ZM3.73333 2.24391C3.73333 3.1681 3.05067 3.9163 1.92838 3.9163C0.87238 3.9163 0.190475 3.1681 0.190475 2.24391C0.190475 1.29839 0.895237 0.571533 1.97333 0.571533C3.05067 0.571533 3.71124 1.29839 3.73333 2.24391Z" fill="white"/>
</svg>
