<svg width="15" height="18" viewBox="0 0 15 18" fill="none" xmlns="http://www.w3.org/2000/svg">
<path fill-rule="evenodd" clip-rule="evenodd" d="M5.79082 11.6999C5.31918 14.1348 4.74349 16.4699 3.03599 17.6895C2.50949 14.0088 3.81029 11.2449 4.41309 8.31031C3.38405 6.60279 4.5373 3.16914 6.71015 4.01637C9.38239 5.05665 4.39606 10.3598 7.74298 11.0221C11.2387 11.7142 12.6656 5.05293 10.4984 2.88672C7.36781 -0.242177 1.38144 2.8141 2.11792 7.29176C2.29698 8.38727 3.44647 8.71933 2.57758 10.2301C0.571829 9.79314 -0.0252964 8.23644 0.0509984 6.16148C0.175212 2.76631 3.15074 0.389065 6.13573 0.0594789C9.91142 -0.356383 13.4538 1.42375 13.9418 4.91948C14.4923 8.86335 12.2387 13.1367 8.20138 12.8289C7.10802 12.747 6.64835 12.2132 5.79082 11.6999Z" fill="white"/>
</svg>
