<svg width="13" height="12" viewBox="0 0 13 12" fill="none" xmlns="http://www.w3.org/2000/svg">
<path d="M5.5279 0.829102L6.1721 0.22207C6.44487 -0.0349609 6.88594 -0.0349609 7.1558 0.22207L12.7969 5.53496C13.0696 5.79199 13.0696 6.20762 12.7969 6.46191L7.1558 11.7775C6.88304 12.0346 6.44196 12.0346 6.1721 11.7775L5.5279 11.1705C5.25223 10.9107 5.25804 10.4869 5.53951 10.2326L9.03616 7.09355H0.696429C0.310491 7.09355 0 6.80098 0 6.4373V5.5623C0 5.19863 0.310491 4.90605 0.696429 4.90605H9.03616L5.53951 1.76699C5.25513 1.5127 5.24933 1.08887 5.5279 0.829102Z" fill="#33C0BA"/>
</svg>
