<svg width="122" height="122" viewBox="0 0 122 122" fill="none" xmlns="http://www.w3.org/2000/svg">
<path d="M88.0772 54.2009L88.0768 54.2006L53.0582 34.7445C47.8701 31.8599 41.5 35.6163 41.5 41.5438V80.4563V80.4567C41.5007 81.8111 41.855 83.1418 42.5278 84.3174C43.2005 85.4929 44.1684 86.4725 45.3358 87.1592C46.5032 87.8459 47.8297 88.2161 49.184 88.233C50.5383 88.2499 51.8735 87.9131 53.0577 87.2558L53.058 87.2556L88.0768 67.7994L88.0772 67.7991C89.2889 67.1247 90.2983 66.1388 91.001 64.9435C91.7037 63.7481 92.0743 62.3866 92.0743 61C92.0743 59.6134 91.7037 58.2519 91.001 57.0565C90.2983 55.8612 89.2889 54.8753 88.0772 54.2009ZM0.8125 61C0.8125 27.758 27.758 0.8125 61 0.8125C94.242 0.8125 121.188 27.758 121.188 61C121.188 94.242 94.242 121.188 61 121.188C27.758 121.188 0.8125 94.242 0.8125 61Z" fill="white" stroke="#33C0BA" stroke-width="1.5"/>
</svg>
