<svg width="24" height="18" viewBox="0 0 24 18" fill="none" xmlns="http://www.w3.org/2000/svg">
<path fill-rule="evenodd" clip-rule="evenodd" d="M16.0694 0.530332L11.3565 0.529297L11.0217 0.54232L10.5678 0.553332L9.71941 0.559734L8.39608 0.563864L8.03394 0.570361L7.71739 0.581267L7.51211 0.591493C6.77369 0.590783 6.04871 0.614128 5.38564 0.653066L5.05531 0.674178L4.55358 0.713987C4.33387 0.717044 4.05242 0.734677 3.74347 0.776585C3.25454 0.842911 2.81864 0.954979 2.46527 1.13136C1.59408 1.52632 0.879595 2.35844 0.67904 3.35947C0.372051 4.69945 0.247298 6.39533 0.237 8.05566L0.239016 8.56291L0.240089 10.0903L0.247322 10.2828L0.291618 10.9866L0.29842 11.1586L0.300509 11.3202C0.300509 11.8212 0.326894 12.3048 0.374056 12.7858L0.426688 13.2569L0.489933 13.7219C0.635136 14.7365 1.00032 15.5574 1.91935 16.1728L2.06142 16.2637C2.62839 16.6415 3.42017 16.8054 4.67562 16.8838L4.89204 16.8875L5.13654 16.8966L6.55162 16.9729L7.02534 16.9923L7.46967 17.0038C7.61541 17.0064 7.76002 17.0076 7.9073 17.0076L8.23796 17.0209L8.80702 17.0332L9.18958 17.0353L9.95557 17.0311L11.8929 17.0082L12.7522 17.0036L13.4394 16.9901L15.2183 16.9484L15.6229 16.9459L17.5241 16.8786L18.9517 16.8228L19.1107 16.819L19.2679 16.8103C19.2969 16.8084 19.3271 16.8063 19.3586 16.8039C19.6729 16.7798 19.9879 16.7362 20.2863 16.6674C20.5708 16.6019 20.8267 16.5163 21.0485 16.4056C21.9197 16.0107 22.6342 15.1786 22.8347 14.1775C23.1455 12.8213 23.2689 10.9539 23.277 9.07236L23.2761 8.65098L23.2749 8.54671L23.2726 8.14316L23.2656 7.61435C23.2641 7.52714 23.2622 7.44051 23.2603 7.35483L23.2455 6.85564C23.2367 6.61455 23.2257 6.38839 23.2122 6.18613C23.2133 5.44078 23.1337 4.58239 23.0239 3.8151C22.8786 2.80044 22.5134 1.97962 21.5944 1.36409L21.4523 1.27331C20.8854 0.895543 20.0936 0.731495 18.8382 0.653171L18.6297 0.635289L18.1776 0.602801L17.6863 0.575306C17.6016 0.571176 17.5158 0.567295 17.4288 0.563663L16.896 0.545081C16.6248 0.537443 16.3475 0.532383 16.0694 0.530332ZM11.3775 1.45112L15.7912 1.4516C16.0624 1.4516 16.3344 1.45466 16.6023 1.46039L17.1312 1.47528C17.2179 1.47831 17.3038 1.4816 17.3887 1.48515L17.8844 1.5093C18.0446 1.51827 18.1993 1.52811 18.347 1.53872L18.7675 1.57267L19.1423 1.60022C19.9751 1.67167 20.5214 1.7949 20.881 2.0043L20.9553 2.0505C21.7058 2.50881 21.9919 3.12567 22.1093 3.94553C22.2134 4.67333 22.2894 5.49254 22.2894 6.2168C22.3043 6.44663 22.3161 6.70384 22.3253 6.97648L22.3401 7.53864C22.342 7.63457 22.3436 7.73136 22.345 7.82844L22.3531 8.77422V9.07044C22.3453 10.8853 22.2252 12.701 21.9314 13.9843C21.7892 14.6932 21.2778 15.2889 20.6507 15.5733C20.4859 15.6552 20.297 15.7184 20.0786 15.7688C19.8301 15.826 19.5593 15.8634 19.2877 15.8843L19.1116 15.8956L17.0248 15.9741L15.5911 16.0241L15.0668 16.0282L12.8647 16.0795L12.5055 16.084L11.2857 16.0915L9.5593 16.112L9.13468 16.1129L8.70437 16.1094L8.31217 16.1005L7.92827 16.0858C7.70728 16.0856 7.49447 16.0828 7.27629 16.0771L6.82873 16.062L6.34273 16.0391L5.17529 15.975L4.91888 15.9656L4.70444 15.9624L4.32125 15.9335C3.53065 15.8633 2.99385 15.7413 2.63759 15.5355L2.55854 15.4865C1.80796 15.0282 1.52188 14.4113 1.40454 13.5915L1.34352 13.143C1.33928 13.109 1.33506 13.0743 1.33068 13.0375C1.2767 12.5839 1.24108 12.1324 1.22899 11.6696L1.22214 11.1376L1.21477 10.948L1.16756 10.1834L1.16308 10.0208L1.1609 8.05844C1.17079 6.46338 1.29146 4.82316 1.58236 3.55267C1.72455 2.84382 2.23601 2.24814 2.86302 1.96364C3.12496 1.83324 3.47065 1.74437 3.86788 1.69049C4.08209 1.66142 4.28215 1.64576 4.44727 1.63936L4.58547 1.63604L5.11988 1.59422L5.4399 1.57377C6.08568 1.53585 6.79275 1.51308 7.53773 1.51308L7.7413 1.50317L8.05218 1.49256L8.68078 1.48383L10.3307 1.47882L10.8194 1.47075L11.2644 1.45604L11.3775 1.45112ZM8.98518 5.35599V11.6891C8.98518 12.0335 9.34966 12.2564 9.65701 12.0999L15.8164 8.96407C16.1509 8.79377 16.1529 8.3171 15.8196 8.14412L9.66028 4.94685C9.35273 4.78721 8.98518 5.00997 8.98518 5.35599ZM9.90911 6.11535L14.597 8.54901L9.90911 10.9359V6.11535Z" fill="black"/>
</svg>
